<?xml version="1.0" encoding="UTF-8"?><svg xmlns="http://www.w3.org/2000/svg" xmlns:xlink="http://www.w3.org/1999/xlink" fill-opacity="1" color-rendering="auto" color-interpolation="auto" text-rendering="auto" stroke="black" stroke-linecap="square" width="840" stroke-miterlimit="10" shape-rendering="auto" stroke-opacity="1" fill="black" stroke-dasharray="none" font-weight="normal" stroke-width="1" height="1488" font-family="'Dialog'" font-style="normal" stroke-linejoin="miter" font-size="12px" stroke-dashoffset="0" image-rendering="auto">
  <!--Generated by ySVG 2.6-->
  <defs id="genericDefs"/>
  <g>
    <defs id="defs1">
      <linearGradient x1="800.1456" gradientUnits="userSpaceOnUse" x2="1145.7906" y1="505.7178" y2="598.1978" id="linearGradient1" spreadMethod="reflect">
        <stop stop-opacity="1" stop-color="white" offset="0%"/>
        <stop stop-opacity="1" stop-color="white" offset="100%"/>
      </linearGradient>
      <linearGradient x1="800.1456" gradientUnits="userSpaceOnUse" x2="1145.7906" y1="360.333" y2="452.813" id="linearGradient2" spreadMethod="reflect">
        <stop stop-opacity="1" stop-color="white" offset="0%"/>
        <stop stop-opacity="1" stop-color="white" offset="100%"/>
      </linearGradient>
      <linearGradient x1="800.1456" gradientUnits="userSpaceOnUse" x2="1145.7906" y1="1724.7145" y2="1817.1945" id="linearGradient3" spreadMethod="reflect">
        <stop stop-opacity="1" stop-color="white" offset="0%"/>
        <stop stop-opacity="1" stop-color="white" offset="100%"/>
      </linearGradient>
      <linearGradient x1="800.1456" gradientUnits="userSpaceOnUse" x2="1145.7906" y1="785.3566" y2="877.8365" id="linearGradient4" spreadMethod="reflect">
        <stop stop-opacity="1" stop-color="white" offset="0%"/>
        <stop stop-opacity="1" stop-color="white" offset="100%"/>
      </linearGradient>
      <clipPath clipPathUnits="userSpaceOnUse" id="clipPath1">
        <path d="M0 0 L840 0 L840 1488 L0 1488 L0 0 Z"/>
      </clipPath>
      <clipPath clipPathUnits="userSpaceOnUse" id="clipPath2">
        <path d="M785 345 L1625 345 L1625 1833 L785 1833 L785 345 Z"/>
      </clipPath>
    </defs>
    <g fill="white" text-rendering="geometricPrecision" shape-rendering="geometricPrecision" transform="translate(-785,-345)" stroke="white">
      <rect x="785" width="840" height="1488" y="345" clip-path="url(#clipPath2)" stroke="none"/>
    </g>
    <g fill="url(#linearGradient1)" text-rendering="geometricPrecision" shape-rendering="geometricPrecision" transform="matrix(1,0,0,1,-785,-345)" stroke="url(#linearGradient1)">
      <path d="M800.1456 505.7178 L1145.7906 505.7178 L1145.7906 598.1978 L800.1456 598.1978 Z" stroke="none" clip-path="url(#clipPath2)"/>
    </g>
    <g text-rendering="geometricPrecision" stroke-miterlimit="1.45" shape-rendering="geometricPrecision" transform="matrix(1,0,0,1,-785,-345)" stroke-linecap="butt">
      <path fill="none" d="M800.1456 505.7178 L1145.7906 505.7178 L1145.7906 598.1978 L800.1456 598.1978 Z" clip-path="url(#clipPath2)"/>
      <text x="847.7191" font-size="20px" y="547.5633" clip-path="url(#clipPath2)" font-family="sans-serif" stroke="none" xml:space="preserve">создать очереди q1, q2, q3</text>
      <text x="821.4886" font-size="20px" y="572.0652" clip-path="url(#clipPath2)" font-family="sans-serif" stroke="none" xml:space="preserve">для обрабатывающих устройств</text>
    </g>
    <g fill="url(#linearGradient2)" text-rendering="geometricPrecision" shape-rendering="geometricPrecision" transform="matrix(1,0,0,1,-785,-345)" stroke="url(#linearGradient2)">
      <rect x="800.1457" y="360.333" clip-path="url(#clipPath2)" width="345.645" rx="46.24" ry="46.24" height="92.48" stroke="none"/>
    </g>
    <g text-rendering="geometricPrecision" stroke-miterlimit="1.45" shape-rendering="geometricPrecision" transform="matrix(1,0,0,1,-785,-345)" stroke-linecap="butt">
      <rect x="800.1457" y="360.333" clip-path="url(#clipPath2)" fill="none" width="345.645" rx="46.24" ry="46.24" height="92.48"/>
      <text x="938.017" font-size="20px" y="414.4294" clip-path="url(#clipPath2)" font-family="sans-serif" stroke="none" xml:space="preserve">Начало</text>
    </g>
    <g text-rendering="geometricPrecision" stroke-miterlimit="1.45" shape-rendering="geometricPrecision" transform="matrix(1,0,0,1,-785,-345)" stroke-linecap="butt">
      <path fill="none" d="M810.1456 651.1027 L1135.7906 651.1027 L1145.7906 661.1027 L1145.7906 743.5826 L800.1456 743.5826 L800.1456 661.1027 Z" clip-path="url(#clipPath2)"/>
      <text x="909.3402" font-size="20px" y="692.9481" clip-path="url(#clipPath2)" font-family="sans-serif" stroke="none" xml:space="preserve">Цикл i от 0 до</text>
      <text x="826.2592" font-size="20px" y="717.4501" clip-path="url(#clipPath2)" font-family="sans-serif" stroke="none" xml:space="preserve">количества матриц-1 с шагом 1</text>
    </g>
    <g fill="url(#linearGradient3)" text-rendering="geometricPrecision" shape-rendering="geometricPrecision" transform="matrix(1,0,0,1,-785,-345)" stroke="url(#linearGradient3)">
      <rect x="800.1457" y="1724.7145" clip-path="url(#clipPath2)" width="345.645" rx="46.24" ry="46.24" height="92.48" stroke="none"/>
    </g>
    <g text-rendering="geometricPrecision" stroke-miterlimit="1.45" shape-rendering="geometricPrecision" transform="matrix(1,0,0,1,-785,-345)" stroke-linecap="butt">
      <rect x="800.1457" y="1724.7145" clip-path="url(#clipPath2)" fill="none" width="345.645" rx="46.24" ry="46.24" height="92.48"/>
      <text x="944.7699" font-size="20px" y="1778.8109" clip-path="url(#clipPath2)" font-family="sans-serif" stroke="none" xml:space="preserve">Конец</text>
    </g>
    <g text-rendering="geometricPrecision" stroke-miterlimit="1.45" shape-rendering="geometricPrecision" transform="matrix(1,0,0,1,-785,-345)" stroke-linecap="butt">
      <path fill="none" d="M800.1456 1456.6261 L1145.7906 1456.6261 L1145.7906 1539.1061 L1135.7906 1549.1061 L810.1456 1549.1061 L800.1456 1539.1061 Z" clip-path="url(#clipPath2)"/>
      <text x="944.7748" font-size="20px" y="1510.7225" clip-path="url(#clipPath2)" font-family="sans-serif" stroke="none" xml:space="preserve">Цикл i</text>
    </g>
    <g text-rendering="geometricPrecision" stroke-miterlimit="1.45" shape-rendering="geometricPrecision" transform="matrix(1,0,0,1,-785,-345)" stroke-linecap="butt">
      <rect fill="none" x="800.1457" width="345.645" height="92.48" y="1053.8644" clip-path="url(#clipPath2)"/>
      <path fill="none" d="M810.1456 1053.8644 L810.1456 1146.3444 M1135.7906 1053.8644 L1135.7906 1146.3444 M810.1456 1053.8644 Z" clip-path="url(#clipPath2)"/>
      <text x="881.64" font-size="20px" y="1095.7098" clip-path="url(#clipPath2)" font-family="sans-serif" stroke="none" xml:space="preserve">Инициализировать </text>
      <text x="941.889" font-size="20px" y="1120.2118" clip-path="url(#clipPath2)" font-family="sans-serif" stroke="none" xml:space="preserve">потоки</text>
    </g>
    <g fill="url(#linearGradient4)" text-rendering="geometricPrecision" shape-rendering="geometricPrecision" transform="matrix(1,0,0,1,-785,-345)" stroke="url(#linearGradient4)">
      <path d="M800.1456 785.3566 L1145.7906 785.3566 L1145.7906 877.8365 L800.1456 877.8365 Z" stroke="none" clip-path="url(#clipPath2)"/>
    </g>
    <g text-rendering="geometricPrecision" stroke-miterlimit="1.45" shape-rendering="geometricPrecision" transform="matrix(1,0,0,1,-785,-345)" stroke-linecap="butt">
      <path fill="none" d="M800.1456 785.3566 L1145.7906 785.3566 L1145.7906 877.8365 L800.1456 877.8365 Z" clip-path="url(#clipPath2)"/>
      <text x="838.3832" font-size="20px" y="827.202" clip-path="url(#clipPath2)" font-family="sans-serif" stroke="none" xml:space="preserve">добавить размер матрицы в </text>
      <text x="920.5658" font-size="20px" y="851.704" clip-path="url(#clipPath2)" font-family="sans-serif" stroke="none" xml:space="preserve">очередь q1</text>
    </g>
    <g text-rendering="geometricPrecision" stroke-miterlimit="1.45" shape-rendering="geometricPrecision" transform="matrix(1,0,0,1,-785,-345)" stroke-linecap="butt">
      <path fill="none" d="M800.1456 919.6105 L1145.7906 919.6105 L1145.7906 1002.0905 L1135.7906 1012.0905 L810.1456 1012.0905 L800.1456 1002.0905 Z" clip-path="url(#clipPath2)"/>
      <text x="944.7748" font-size="20px" y="973.7069" clip-path="url(#clipPath2)" font-family="sans-serif" stroke="none" xml:space="preserve">Цикл i</text>
    </g>
    <g text-rendering="geometricPrecision" stroke-miterlimit="1.45" shape-rendering="geometricPrecision" transform="matrix(1,0,0,1,-785,-345)" stroke-linecap="butt">
      <path fill="none" d="M810.1456 1188.1183 L1135.7906 1188.1183 L1145.7906 1198.1183 L1145.7906 1280.5983 L800.1456 1280.5983 L800.1456 1198.1183 Z" clip-path="url(#clipPath2)"/>
      <text x="852.4359" font-size="20px" y="1242.2147" clip-path="url(#clipPath2)" font-family="sans-serif" stroke="none" xml:space="preserve">Цикл i от 0 до 2 с шагом 1</text>
    </g>
    <g text-rendering="geometricPrecision" stroke-miterlimit="1.45" shape-rendering="geometricPrecision" transform="matrix(1,0,0,1,-785,-345)" stroke-linecap="butt">
      <rect fill="none" x="800.1457" width="345.645" height="92.48" y="1322.3722" clip-path="url(#clipPath2)"/>
      <path fill="none" d="M810.1456 1322.3722 L810.1456 1414.8522 M1135.7906 1322.3722 L1135.7906 1414.8522 M810.1456 1322.3722 Z" clip-path="url(#clipPath2)"/>
      <text x="892.1381" font-size="20px" y="1376.4686" clip-path="url(#clipPath2)" font-family="sans-serif" stroke="none" xml:space="preserve">Запустить потоки</text>
    </g>
    <g text-rendering="geometricPrecision" stroke-miterlimit="1.45" shape-rendering="geometricPrecision" transform="matrix(1,0,0,1,-785,-345)" stroke-linecap="butt">
      <path fill="none" d="M1215.4507 1327.5184 L1191.7788 1327.5184 L1191.7788 1409.7059 L1215.4507 1409.7059" clip-path="url(#clipPath2)"/>
      <text x="1211.7466" font-size="20px" y="1376.4686" clip-path="url(#clipPath2)" font-family="sans-serif" stroke="none" xml:space="preserve">Передается функция и ссылки на очереди</text>
    </g>
    <g text-rendering="geometricPrecision" stroke-miterlimit="1.45" shape-rendering="geometricPrecision" transform="matrix(1,0,0,1,-785,-345)" stroke-linecap="butt">
      <rect fill="none" x="800.1457" width="345.645" height="92.48" y="1590.6703" clip-path="url(#clipPath2)"/>
      <path fill="none" d="M810.1456 1590.6703 L810.1456 1683.1503 M1135.7906 1590.6703 L1135.7906 1683.1503 M810.1456 1590.6703 Z" clip-path="url(#clipPath2)"/>
      <text x="865.3802" font-size="20px" y="1632.5157" clip-path="url(#clipPath2)" font-family="sans-serif" stroke="none" xml:space="preserve">Ожидание завершения</text>
      <text x="936.601" font-size="20px" y="1657.0177" clip-path="url(#clipPath2)" font-family="sans-serif" stroke="none" xml:space="preserve">потоков</text>
    </g>
    <g text-rendering="geometricPrecision" stroke-miterlimit="1.45" shape-rendering="geometricPrecision" transform="matrix(1,0,0,1,-785,-345)" stroke-linecap="butt">
      <path fill="none" d="M972.9681 452.8221 L972.9681 497.73" clip-path="url(#clipPath2)"/>
    </g>
    <g text-rendering="geometricPrecision" stroke-miterlimit="1.45" shape-rendering="geometricPrecision" transform="matrix(1,0,0,1,-785,-345)" stroke-linecap="butt">
      <path d="M972.9681 505.73 L977.9681 493.73 L972.9681 496.73 L967.9681 493.73 Z" stroke="none" clip-path="url(#clipPath2)"/>
      <path fill="none" d="M972.9681 598.2069 L972.9681 643.1148" clip-path="url(#clipPath2)"/>
      <path d="M972.9681 651.1148 L977.9681 639.1148 L972.9681 642.1148 L967.9681 639.1148 Z" clip-path="url(#clipPath2)" stroke="none"/>
      <path fill="none" d="M972.9681 743.5908 L972.9681 777.3162" clip-path="url(#clipPath2)"/>
      <path d="M972.9681 785.3162 L977.9681 773.3162 L972.9681 776.3162 L967.9681 773.3162 Z" clip-path="url(#clipPath2)" stroke="none"/>
      <path fill="none" d="M972.9681 877.8447 L972.9681 911.5701" clip-path="url(#clipPath2)"/>
      <path d="M972.9681 919.5701 L977.9681 907.5701 L972.9681 910.5701 L967.9681 907.5701 Z" clip-path="url(#clipPath2)" stroke="none"/>
      <path fill="none" d="M972.9681 1012.0986 L972.9681 1045.824" clip-path="url(#clipPath2)"/>
      <path d="M972.9681 1053.824 L977.9681 1041.824 L972.9681 1044.824 L967.9681 1041.824 Z" clip-path="url(#clipPath2)" stroke="none"/>
      <path fill="none" d="M972.9681 1146.3524 L972.9681 1180.0779" clip-path="url(#clipPath2)"/>
      <path d="M972.9681 1188.0779 L977.9681 1176.0779 L972.9681 1179.0779 L967.9681 1176.0779 Z" clip-path="url(#clipPath2)" stroke="none"/>
      <path fill="none" d="M972.9681 1280.6063 L972.9681 1314.3318" clip-path="url(#clipPath2)"/>
      <path d="M972.9681 1322.3318 L977.9681 1310.3318 L972.9681 1313.3318 L967.9681 1310.3318 Z" clip-path="url(#clipPath2)" stroke="none"/>
      <path fill="none" d="M972.9681 1414.8602 L972.9681 1448.5857" clip-path="url(#clipPath2)"/>
      <path d="M972.9681 1456.5857 L977.9681 1444.5857 L972.9681 1447.5857 L967.9681 1444.5857 Z" clip-path="url(#clipPath2)" stroke="none"/>
      <path fill="none" stroke-dasharray="12,4" d="M1191.751 1368.6122 L1145.7885 1368.6122" stroke-width="2" clip-path="url(#clipPath2)"/>
      <path fill="none" d="M972.9681 1549.1074 L972.9681 1582.6509" clip-path="url(#clipPath2)"/>
      <path d="M972.9681 1590.6509 L977.9681 1578.6509 L972.9681 1581.6509 L967.9681 1578.6509 Z" clip-path="url(#clipPath2)" stroke="none"/>
      <path fill="none" d="M972.9681 1683.1516 L972.9681 1716.6951" clip-path="url(#clipPath2)"/>
      <path d="M972.9681 1724.6951 L977.9681 1712.6951 L972.9681 1715.6951 L967.9681 1712.6951 Z" clip-path="url(#clipPath2)" stroke="none"/>
    </g>
  </g>
</svg>
