<?xml version="1.0" encoding="UTF-8"?><svg xmlns="http://www.w3.org/2000/svg" xmlns:xlink="http://www.w3.org/1999/xlink" fill-opacity="1" color-rendering="auto" color-interpolation="auto" text-rendering="auto" stroke="black" stroke-linecap="square" width="376" stroke-miterlimit="10" shape-rendering="auto" stroke-opacity="1" fill="black" stroke-dasharray="none" font-weight="normal" stroke-width="1" height="929" font-family="'Dialog'" font-style="normal" stroke-linejoin="miter" font-size="12px" stroke-dashoffset="0" image-rendering="auto">
  <!--Generated by ySVG 2.6-->
  <defs id="genericDefs"/>
  <g>
    <defs id="defs1">
      <linearGradient x1="775.0728" gradientUnits="userSpaceOnUse" x2="1120.7178" y1="490.9244" y2="583.4044" id="linearGradient1" spreadMethod="reflect">
        <stop stop-opacity="1" stop-color="white" offset="0%"/>
        <stop stop-opacity="1" stop-color="white" offset="100%"/>
      </linearGradient>
      <linearGradient x1="775.0728" gradientUnits="userSpaceOnUse" x2="1120.7178" y1="1296.4478" y2="1388.9279" id="linearGradient2" spreadMethod="reflect">
        <stop stop-opacity="1" stop-color="white" offset="0%"/>
        <stop stop-opacity="1" stop-color="white" offset="100%"/>
      </linearGradient>
      <clipPath clipPathUnits="userSpaceOnUse" id="clipPath1">
        <path d="M0 0 L376 0 L376 929 L0 929 L0 0 Z"/>
      </clipPath>
      <clipPath clipPathUnits="userSpaceOnUse" id="clipPath2">
        <path d="M760 475 L1136 475 L1136 1404 L760 1404 L760 475 Z"/>
      </clipPath>
    </defs>
    <g fill="white" text-rendering="geometricPrecision" shape-rendering="geometricPrecision" transform="translate(-760,-475)" stroke="white">
      <rect x="760" width="376" height="929" y="475" clip-path="url(#clipPath2)" stroke="none"/>
    </g>
    <g fill="url(#linearGradient1)" text-rendering="geometricPrecision" shape-rendering="geometricPrecision" transform="matrix(1,0,0,1,-760,-475)" stroke="url(#linearGradient1)">
      <rect x="775.0728" y="490.9244" clip-path="url(#clipPath2)" width="345.645" rx="46.24" ry="46.24" height="92.48" stroke="none"/>
    </g>
    <g text-rendering="geometricPrecision" stroke-miterlimit="1.45" shape-rendering="geometricPrecision" transform="matrix(1,0,0,1,-760,-475)" stroke-linecap="butt">
      <rect x="775.0728" y="490.9244" clip-path="url(#clipPath2)" fill="none" width="345.645" rx="46.24" ry="46.24" height="92.48"/>
      <text x="912.9442" font-size="20px" y="545.0208" clip-path="url(#clipPath2)" font-family="sans-serif" stroke="none" xml:space="preserve">Начало</text>
    </g>
    <g text-rendering="geometricPrecision" stroke-miterlimit="1.45" shape-rendering="geometricPrecision" transform="matrix(1,0,0,1,-760,-475)" stroke-linecap="butt">
      <path fill="none" d="M785.0728 625.1783 L1110.7178 625.1783 L1120.7178 635.1783 L1120.7178 717.6583 L775.0728 717.6583 L775.0728 635.1783 Z" clip-path="url(#clipPath2)"/>
      <text x="884.2674" font-size="20px" y="667.0237" clip-path="url(#clipPath2)" font-family="sans-serif" stroke="none" xml:space="preserve">Цикл i от 0 до</text>
      <text x="801.1863" font-size="20px" y="691.5257" clip-path="url(#clipPath2)" font-family="sans-serif" stroke="none" xml:space="preserve">количества матриц-1 с шагом 1</text>
    </g>
    <g fill="url(#linearGradient2)" text-rendering="geometricPrecision" shape-rendering="geometricPrecision" transform="matrix(1,0,0,1,-760,-475)" stroke="url(#linearGradient2)">
      <rect x="775.0728" y="1296.4478" clip-path="url(#clipPath2)" width="345.645" rx="46.24" ry="46.24" height="92.48" stroke="none"/>
    </g>
    <g text-rendering="geometricPrecision" stroke-miterlimit="1.45" shape-rendering="geometricPrecision" transform="matrix(1,0,0,1,-760,-475)" stroke-linecap="butt">
      <rect x="775.0728" y="1296.4478" clip-path="url(#clipPath2)" fill="none" width="345.645" rx="46.24" ry="46.24" height="92.48"/>
      <text x="919.6971" font-size="20px" y="1350.5442" clip-path="url(#clipPath2)" font-family="sans-serif" stroke="none" xml:space="preserve">Конец</text>
    </g>
    <g text-rendering="geometricPrecision" stroke-miterlimit="1.45" shape-rendering="geometricPrecision" transform="matrix(1,0,0,1,-760,-475)" stroke-linecap="butt">
      <rect fill="none" x="775.0728" width="345.645" height="92.48" y="759.4322" clip-path="url(#clipPath2)"/>
      <path fill="none" d="M785.0728 759.4322 L785.0728 851.9122 M1110.7178 759.4322 L1110.7178 851.9122 M785.0728 759.4322 Z" clip-path="url(#clipPath2)"/>
      <text x="819.8582" font-size="20px" y="801.2776" clip-path="url(#clipPath2)" font-family="sans-serif" stroke="none" xml:space="preserve">Сгенерировать квадратную</text>
      <text x="846.3963" font-size="20px" y="825.7796" clip-path="url(#clipPath2)" font-family="sans-serif" stroke="none" xml:space="preserve">матрицу размера size</text>
    </g>
    <g text-rendering="geometricPrecision" stroke-miterlimit="1.45" shape-rendering="geometricPrecision" transform="matrix(1,0,0,1,-760,-475)" stroke-linecap="butt">
      <path fill="none" d="M775.0728 1162.1938 L1120.7178 1162.1938 L1120.7178 1244.674 L1110.7178 1254.674 L785.0728 1254.674 L775.0728 1244.674 Z" clip-path="url(#clipPath2)"/>
      <text x="919.702" font-size="20px" y="1216.2903" clip-path="url(#clipPath2)" font-family="sans-serif" stroke="none" xml:space="preserve">Цикл i</text>
    </g>
    <g text-rendering="geometricPrecision" stroke-miterlimit="1.45" shape-rendering="geometricPrecision" transform="matrix(1,0,0,1,-760,-475)" stroke-linecap="butt">
      <rect fill="none" x="775.0728" width="345.645" height="92.48" y="893.6861" clip-path="url(#clipPath2)"/>
      <path fill="none" d="M785.0728 893.6861 L785.0728 986.1661 M1110.7178 893.6861 L1110.7178 986.1661 M785.0728 893.6861 Z" clip-path="url(#clipPath2)"/>
      <text x="833.5057" font-size="20px" y="935.5316" clip-path="url(#clipPath2)" font-family="sans-serif" stroke="none" xml:space="preserve">Вычислить детерминант</text>
      <text x="906.8162" font-size="20px" y="960.0335" clip-path="url(#clipPath2)" font-family="sans-serif" stroke="none" xml:space="preserve">матрицы</text>
    </g>
    <g text-rendering="geometricPrecision" stroke-miterlimit="1.45" shape-rendering="geometricPrecision" transform="matrix(1,0,0,1,-760,-475)" stroke-linecap="butt">
      <rect fill="none" x="775.0728" width="345.645" height="92.48" y="1027.94" clip-path="url(#clipPath2)"/>
      <path fill="none" d="M785.0728 1027.9399 L785.0728 1120.42 M1110.7178 1027.9399 L1110.7178 1120.42 M785.0728 1027.9399 Z" clip-path="url(#clipPath2)"/>
      <text x="863.2713" font-size="20px" y="1069.7854" clip-path="url(#clipPath2)" font-family="sans-serif" stroke="none" xml:space="preserve">Записать матрицу</text>
      <text x="823.4471" font-size="20px" y="1094.2874" clip-path="url(#clipPath2)" font-family="sans-serif" stroke="none" xml:space="preserve">и ее определитель в файл</text>
    </g>
    <g text-rendering="geometricPrecision" stroke-miterlimit="1.45" shape-rendering="geometricPrecision" transform="matrix(1,0,0,1,-760,-475)" stroke-linecap="butt">
      <path fill="none" d="M947.8953 583.4125 L947.8953 617.1379" clip-path="url(#clipPath2)"/>
    </g>
    <g text-rendering="geometricPrecision" stroke-miterlimit="1.45" shape-rendering="geometricPrecision" transform="matrix(1,0,0,1,-760,-475)" stroke-linecap="butt">
      <path d="M947.8953 625.1379 L952.8953 613.1379 L947.8953 616.1379 L942.8953 613.1379 Z" stroke="none" clip-path="url(#clipPath2)"/>
      <path fill="none" d="M947.8953 717.6664 L947.8953 751.3918" clip-path="url(#clipPath2)"/>
      <path d="M947.8953 759.3918 L952.8953 747.3918 L947.8953 750.3918 L942.8953 747.3918 Z" clip-path="url(#clipPath2)" stroke="none"/>
      <path fill="none" d="M947.8953 1254.682 L947.8953 1288.4073" clip-path="url(#clipPath2)"/>
      <path d="M947.8953 1296.4073 L952.8953 1284.4073 L947.8953 1287.4073 L942.8953 1284.4073 Z" clip-path="url(#clipPath2)" stroke="none"/>
      <path fill="none" d="M947.8953 851.9203 L947.8953 885.6457" clip-path="url(#clipPath2)"/>
      <path d="M947.8953 893.6457 L952.8953 881.6457 L947.8953 884.6457 L942.8953 881.6457 Z" clip-path="url(#clipPath2)" stroke="none"/>
      <path fill="none" d="M947.8953 986.1742 L947.8953 1019.8996" clip-path="url(#clipPath2)"/>
      <path d="M947.8953 1027.8997 L952.8953 1015.8997 L947.8953 1018.8997 L942.8953 1015.8997 Z" clip-path="url(#clipPath2)" stroke="none"/>
      <path fill="none" d="M947.8953 1120.4281 L947.8953 1154.1534" clip-path="url(#clipPath2)"/>
      <path d="M947.8953 1162.1534 L952.8953 1150.1534 L947.8953 1153.1534 L942.8953 1150.1534 Z" clip-path="url(#clipPath2)" stroke="none"/>
    </g>
  </g>
</svg>
