<?xml version="1.0" encoding="UTF-8"?><svg xmlns="http://www.w3.org/2000/svg" xmlns:xlink="http://www.w3.org/1999/xlink" fill-opacity="1" color-rendering="auto" color-interpolation="auto" text-rendering="auto" stroke="black" stroke-linecap="square" width="653" stroke-miterlimit="10" shape-rendering="auto" stroke-opacity="1" fill="black" stroke-dasharray="none" font-weight="normal" stroke-width="1" height="871" font-family="'Dialog'" font-style="normal" stroke-linejoin="miter" font-size="12px" stroke-dashoffset="0" image-rendering="auto">
  <!--Generated by ySVG 2.6-->
  <defs id="genericDefs"/>
  <g>
    <defs id="defs1">
      <linearGradient x1="825.2913" gradientUnits="userSpaceOnUse" x2="1170.9363" y1="565.7296" y2="658.2095" id="linearGradient1" spreadMethod="reflect">
        <stop stop-opacity="1" stop-color="white" offset="0%"/>
        <stop stop-opacity="1" stop-color="white" offset="100%"/>
      </linearGradient>
      <linearGradient x1="825.2913" gradientUnits="userSpaceOnUse" x2="1170.9363" y1="1313.0358" y2="1405.5157" id="linearGradient2" spreadMethod="reflect">
        <stop stop-opacity="1" stop-color="white" offset="0%"/>
        <stop stop-opacity="1" stop-color="white" offset="100%"/>
      </linearGradient>
      <clipPath clipPathUnits="userSpaceOnUse" id="clipPath1">
        <path d="M0 0 L653 0 L653 871 L0 871 L0 0 Z"/>
      </clipPath>
      <clipPath clipPathUnits="userSpaceOnUse" id="clipPath2">
        <path d="M810 550 L1463 550 L1463 1421 L810 1421 L810 550 Z"/>
      </clipPath>
    </defs>
    <g fill="white" text-rendering="geometricPrecision" shape-rendering="geometricPrecision" transform="translate(-810,-550)" stroke="white">
      <rect x="810" width="653" height="871" y="550" clip-path="url(#clipPath2)" stroke="none"/>
    </g>
    <g fill="url(#linearGradient1)" text-rendering="geometricPrecision" shape-rendering="geometricPrecision" transform="matrix(1,0,0,1,-810,-550)" stroke="url(#linearGradient1)">
      <rect x="825.2913" y="565.7295" clip-path="url(#clipPath2)" width="345.645" rx="46.24" ry="46.24" height="92.48" stroke="none"/>
    </g>
    <g text-rendering="geometricPrecision" stroke-miterlimit="1.45" shape-rendering="geometricPrecision" transform="matrix(1,0,0,1,-810,-550)" stroke-linecap="butt">
      <rect x="825.2913" y="565.7295" clip-path="url(#clipPath2)" fill="none" width="345.645" rx="46.24" ry="46.24" height="92.48"/>
      <text x="963.1627" font-size="20px" y="619.826" clip-path="url(#clipPath2)" font-family="sans-serif" stroke="none" xml:space="preserve">Начало</text>
    </g>
    <g text-rendering="geometricPrecision" stroke-miterlimit="1.45" shape-rendering="geometricPrecision" transform="matrix(1,0,0,1,-810,-550)" stroke-linecap="butt">
      <path fill="none" d="M835.2913 688.2095 L1160.9363 688.2095 L1170.9363 698.2095 L1170.9363 780.6895 L825.2913 780.6895 L825.2913 698.2095 Z" clip-path="url(#clipPath2)"/>
      <text x="878.0504" font-size="20px" y="742.306" clip-path="url(#clipPath2)" font-family="sans-serif" stroke="none" xml:space="preserve">Пока очередь q1 не пуста</text>
    </g>
    <g fill="url(#linearGradient2)" text-rendering="geometricPrecision" shape-rendering="geometricPrecision" transform="matrix(1,0,0,1,-810,-550)" stroke="url(#linearGradient2)">
      <rect x="825.2913" y="1313.0357" clip-path="url(#clipPath2)" width="345.645" rx="46.24" ry="46.24" height="92.48" stroke="none"/>
    </g>
    <g text-rendering="geometricPrecision" stroke-miterlimit="1.45" shape-rendering="geometricPrecision" transform="matrix(1,0,0,1,-810,-550)" stroke-linecap="butt">
      <rect x="825.2913" y="1313.0357" clip-path="url(#clipPath2)" fill="none" width="345.645" rx="46.24" ry="46.24" height="92.48"/>
      <text x="969.9156" font-size="20px" y="1367.1322" clip-path="url(#clipPath2)" font-family="sans-serif" stroke="none" xml:space="preserve">Конец</text>
    </g>
    <g text-rendering="geometricPrecision" stroke-miterlimit="1.45" shape-rendering="geometricPrecision" transform="matrix(1,0,0,1,-810,-550)" stroke-linecap="butt">
      <path fill="none" d="M825.2913 1178.1295 L1170.9363 1178.1295 L1170.9363 1260.6095 L1160.9363 1270.6095 L835.2913 1270.6095 L825.2913 1260.6095 Z" clip-path="url(#clipPath2)"/>
      <text x="878.0504" font-size="20px" y="1232.226" clip-path="url(#clipPath2)" font-family="sans-serif" stroke="none" xml:space="preserve">Пока очередь q1 не пуста</text>
    </g>
    <g text-rendering="geometricPrecision" stroke-miterlimit="1.45" shape-rendering="geometricPrecision" transform="matrix(1,0,0,1,-810,-550)" stroke-linecap="butt">
      <path fill="none" d="M1246.8362 570.8758 L1223.1643 570.8758 L1223.1643 653.0633 L1246.8362 653.0633" clip-path="url(#clipPath2)"/>
      <text x="1241.7793" font-size="20px" y="619.826" clip-path="url(#clipPath2)" font-family="sans-serif" stroke="none" xml:space="preserve">ссылка на очередь q1</text>
    </g>
    <g text-rendering="geometricPrecision" stroke-miterlimit="1.45" shape-rendering="geometricPrecision" transform="matrix(1,0,0,1,-810,-550)" stroke-linecap="butt">
      <rect fill="none" x="825.2913" width="345.645" height="92.48" y="810.6895" clip-path="url(#clipPath2)"/>
      <path fill="none" d="M835.2913 810.6895 L835.2913 903.1695 M1160.9363 810.6895 L1160.9363 903.1695 M835.2913 810.6895 Z" clip-path="url(#clipPath2)"/>
      <text x="838.065" font-size="20px" y="852.535" clip-path="url(#clipPath2)" font-family="sans-serif" stroke="none" xml:space="preserve">взять размер матрицы из очереди</text>
      <text x="903.817" font-size="20px" y="877.0369" clip-path="url(#clipPath2)" font-family="sans-serif" stroke="none" xml:space="preserve">q1, используя mutex</text>
    </g>
    <g text-rendering="geometricPrecision" stroke-miterlimit="1.45" shape-rendering="geometricPrecision" transform="matrix(1,0,0,1,-810,-550)" stroke-linecap="butt">
      <rect fill="none" x="825.2913" width="345.645" height="92.48" y="933.1695" clip-path="url(#clipPath2)"/>
      <path fill="none" d="M835.2913 933.1695 L835.2913 1025.6495 M1160.9363 933.1695 L1160.9363 1025.6495 M835.2913 933.1695 Z" clip-path="url(#clipPath2)"/>
      <text x="874.4615" font-size="20px" y="975.015" clip-path="url(#clipPath2)" font-family="sans-serif" stroke="none" xml:space="preserve">сгенерировать матрицу по</text>
      <text x="895.565" font-size="20px" y="999.517" clip-path="url(#clipPath2)" font-family="sans-serif" stroke="none" xml:space="preserve">полученному размеру</text>
    </g>
    <g text-rendering="geometricPrecision" stroke-miterlimit="1.45" shape-rendering="geometricPrecision" transform="matrix(1,0,0,1,-810,-550)" stroke-linecap="butt">
      <rect fill="none" x="825.2913" width="345.645" height="92.48" y="1060.7958" clip-path="url(#clipPath2)"/>
      <path fill="none" d="M835.2913 1060.7958 L835.2913 1153.2758 M1160.9363 1060.7958 L1160.9363 1153.2758 M835.2913 1060.7958 Z" clip-path="url(#clipPath2)"/>
      <text x="859.857" font-size="20px" y="1102.6412" clip-path="url(#clipPath2)" font-family="sans-serif" stroke="none" xml:space="preserve">положить матрицу в очередь </text>
      <text x="903.817" font-size="20px" y="1127.1432" clip-path="url(#clipPath2)" font-family="sans-serif" stroke="none" xml:space="preserve">q2, используя mutex</text>
    </g>
    <g text-rendering="geometricPrecision" stroke-miterlimit="1.45" shape-rendering="geometricPrecision" transform="matrix(1,0,0,1,-810,-550)" stroke-linecap="butt">
      <path fill="none" d="M998.1138 658.2285 L998.1138 680.1884" clip-path="url(#clipPath2)"/>
    </g>
    <g text-rendering="geometricPrecision" stroke-miterlimit="1.45" shape-rendering="geometricPrecision" transform="matrix(1,0,0,1,-810,-550)" stroke-linecap="butt">
      <path d="M998.1138 688.1884 L1003.1138 676.1884 L998.1138 679.1884 L993.1138 676.1884 Z" stroke="none" clip-path="url(#clipPath2)"/>
      <path fill="none" d="M998.1138 1270.5789 L998.1138 1305.0651" clip-path="url(#clipPath2)"/>
      <path d="M998.1138 1313.0651 L1003.1138 1301.0651 L998.1138 1304.0651 L993.1138 1301.0651 Z" clip-path="url(#clipPath2)" stroke="none"/>
      <path fill="none" stroke-dasharray="12,4" d="M1223.2028 611.9695 L1170.9147 611.9695" stroke-width="2" clip-path="url(#clipPath2)"/>
      <path fill="none" d="M998.1138 780.7084 L998.1138 802.6684" clip-path="url(#clipPath2)"/>
      <path d="M998.1138 810.6684 L1003.1138 798.6684 L998.1138 801.6684 L993.1138 798.6684 Z" clip-path="url(#clipPath2)" stroke="none"/>
      <path fill="none" d="M998.1138 903.1885 L998.1138 925.1484" clip-path="url(#clipPath2)"/>
      <path d="M998.1138 933.1484 L1003.1138 921.1484 L998.1138 924.1484 L993.1138 921.1484 Z" clip-path="url(#clipPath2)" stroke="none"/>
      <path fill="none" d="M998.1138 1025.6803 L998.1138 1052.7568" clip-path="url(#clipPath2)"/>
      <path d="M998.1138 1060.7568 L1003.1138 1048.7568 L998.1138 1051.7568 L993.1138 1048.7568 Z" clip-path="url(#clipPath2)" stroke="none"/>
      <path fill="none" d="M998.1138 1153.299 L998.1138 1170.1112" clip-path="url(#clipPath2)"/>
      <path d="M998.1138 1178.1112 L1003.1138 1166.1112 L998.1138 1169.1112 L993.1138 1166.1112 Z" clip-path="url(#clipPath2)" stroke="none"/>
    </g>
  </g>
</svg>
