<?xml version="1.0" encoding="UTF-8"?><svg xmlns="http://www.w3.org/2000/svg" xmlns:xlink="http://www.w3.org/1999/xlink" fill-opacity="1" color-rendering="auto" color-interpolation="auto" text-rendering="auto" stroke="black" stroke-linecap="square" width="1326" stroke-miterlimit="10" shape-rendering="auto" stroke-opacity="1" fill="black" stroke-dasharray="none" font-weight="normal" stroke-width="1" height="1054" font-family="'Dialog'" font-style="normal" stroke-linejoin="miter" font-size="12px" stroke-dashoffset="0" image-rendering="auto">
  <!--Generated by ySVG 2.6-->
  <defs id="genericDefs"/>
  <g>
    <defs id="defs1">
      <linearGradient x1="850.5826" gradientUnits="userSpaceOnUse" x2="1196.2277" y1="604.7119" y2="697.1919" id="linearGradient1" spreadMethod="reflect">
        <stop stop-opacity="1" stop-color="white" offset="0%"/>
        <stop stop-opacity="1" stop-color="white" offset="100%"/>
      </linearGradient>
      <linearGradient x1="850.5826" gradientUnits="userSpaceOnUse" x2="1196.2277" y1="1534.6202" y2="1627.1003" id="linearGradient2" spreadMethod="reflect">
        <stop stop-opacity="1" stop-color="white" offset="0%"/>
        <stop stop-opacity="1" stop-color="white" offset="100%"/>
      </linearGradient>
      <clipPath clipPathUnits="userSpaceOnUse" id="clipPath1">
        <path d="M0 0 L1326 0 L1326 1054 L0 1054 L0 0 Z"/>
      </clipPath>
      <clipPath clipPathUnits="userSpaceOnUse" id="clipPath2">
        <path d="M552 589 L1878 589 L1878 1643 L552 1643 L552 589 Z"/>
      </clipPath>
    </defs>
    <g fill="white" text-rendering="geometricPrecision" shape-rendering="geometricPrecision" transform="translate(-552,-589)" stroke="white">
      <rect x="552" width="1326" height="1054" y="589" clip-path="url(#clipPath2)" stroke="none"/>
    </g>
    <g fill="url(#linearGradient1)" text-rendering="geometricPrecision" shape-rendering="geometricPrecision" transform="matrix(1,0,0,1,-552,-589)" stroke="url(#linearGradient1)">
      <rect x="850.5826" y="604.7119" clip-path="url(#clipPath2)" width="345.645" rx="46.24" ry="46.24" height="92.48" stroke="none"/>
    </g>
    <g text-rendering="geometricPrecision" stroke-miterlimit="1.45" shape-rendering="geometricPrecision" transform="matrix(1,0,0,1,-552,-589)" stroke-linecap="butt">
      <rect x="850.5826" y="604.7119" clip-path="url(#clipPath2)" fill="none" width="345.645" rx="46.24" ry="46.24" height="92.48"/>
      <text x="988.4539" font-size="20px" y="658.8083" clip-path="url(#clipPath2)" font-family="sans-serif" stroke="none" xml:space="preserve">Начало</text>
    </g>
    <g text-rendering="geometricPrecision" stroke-miterlimit="1.45" shape-rendering="geometricPrecision" transform="matrix(1,0,0,1,-552,-589)" stroke-linecap="butt">
      <path fill="none" d="M860.5826 727.1919 L1186.2277 727.1919 L1196.2277 737.1919 L1196.2277 819.6719 L850.5826 819.6719 L850.5826 737.1919 Z" clip-path="url(#clipPath2)"/>
      <text x="879.074" font-size="20px" y="769.0374" clip-path="url(#clipPath2)" font-family="sans-serif" stroke="none" xml:space="preserve">Пока очереди q1 и q2 не пусты</text>
      <text x="891.0467" font-size="20px" y="793.5393" clip-path="url(#clipPath2)" font-family="sans-serif" stroke="none" xml:space="preserve">и q2_handled &lt;= q2_received</text>
    </g>
    <g fill="url(#linearGradient2)" text-rendering="geometricPrecision" shape-rendering="geometricPrecision" transform="matrix(1,0,0,1,-552,-589)" stroke="url(#linearGradient2)">
      <rect x="850.5826" y="1534.6203" clip-path="url(#clipPath2)" width="345.645" rx="46.24" ry="46.24" height="92.48" stroke="none"/>
    </g>
    <g text-rendering="geometricPrecision" stroke-miterlimit="1.45" shape-rendering="geometricPrecision" transform="matrix(1,0,0,1,-552,-589)" stroke-linecap="butt">
      <rect x="850.5826" y="1534.6203" clip-path="url(#clipPath2)" fill="none" width="345.645" rx="46.24" ry="46.24" height="92.48"/>
      <text x="995.2068" font-size="20px" y="1588.7168" clip-path="url(#clipPath2)" font-family="sans-serif" stroke="none" xml:space="preserve">Конец</text>
    </g>
    <g text-rendering="geometricPrecision" stroke-miterlimit="1.45" shape-rendering="geometricPrecision" transform="matrix(1,0,0,1,-552,-589)" stroke-linecap="butt">
      <path fill="none" d="M850.5826 1412.1403 L1196.2277 1412.1403 L1196.2277 1494.6202 L1186.2277 1504.6202 L860.5826 1504.6202 L850.5826 1494.6202 Z" clip-path="url(#clipPath2)"/>
      <text x="879.074" font-size="20px" y="1453.9857" clip-path="url(#clipPath2)" font-family="sans-serif" stroke="none" xml:space="preserve">Пока очереди q1 и q2 не пусты</text>
      <text x="891.0467" font-size="20px" y="1478.4877" clip-path="url(#clipPath2)" font-family="sans-serif" stroke="none" xml:space="preserve">и q2_handled &lt;= q2_received</text>
    </g>
    <g text-rendering="geometricPrecision" stroke-miterlimit="1.45" shape-rendering="geometricPrecision" transform="matrix(1,0,0,1,-552,-589)" stroke-linecap="butt">
      <path fill="none" d="M1023.4051 849.6719 L1232.3505 933.1484 L1023.4051 1016.625 L814.4598 933.1484 Z" clip-path="url(#clipPath2)"/>
      <text x="942.6678" font-size="20px" y="941.0049" clip-path="url(#clipPath2)" font-family="sans-serif" stroke="none" xml:space="preserve">очередь q2 пуста</text>
    </g>
    <g text-rendering="geometricPrecision" stroke-miterlimit="1.45" shape-rendering="geometricPrecision" transform="matrix(1,0,0,1,-552,-589)" stroke-linecap="butt">
      <path fill="none" d="M1291.9103 609.8582 L1268.2384 609.8582 L1268.2384 692.0457 L1291.9103 692.0457" clip-path="url(#clipPath2)"/>
      <text x="1283.8683" font-size="20px" y="634.3064" clip-path="url(#clipPath2)" font-family="sans-serif" stroke="none" xml:space="preserve">ссылки на очереди q1, q2, q3</text>
      <text x="1283.8683" font-size="20px" y="658.8083" clip-path="url(#clipPath2)" font-family="sans-serif" stroke="none" xml:space="preserve">q2_received — определяется ранее</text>
      <text x="1283.8683" font-size="20px" y="683.3103" clip-path="url(#clipPath2)" font-family="sans-serif" stroke="none" xml:space="preserve">и равно количеству матриц, которое необходимо обработать </text>
    </g>
    <g text-rendering="geometricPrecision" stroke-miterlimit="1.45" shape-rendering="geometricPrecision" transform="matrix(1,0,0,1,-552,-589)" stroke-linecap="butt">
      <rect fill="none" x="567.3795" width="345.645" height="92.48" y="1139.105" clip-path="url(#clipPath2)"/>
      <path fill="none" d="M577.3795 1139.105 L577.3795 1231.585 M903.0245 1139.105 L903.0245 1231.585 M577.3795 1139.105 Z" clip-path="url(#clipPath2)"/>
      <text x="625.8123" font-size="20px" y="1180.9504" clip-path="url(#clipPath2)" font-family="sans-serif" stroke="none" xml:space="preserve">Вычислить детерминант</text>
      <text x="699.1229" font-size="20px" y="1205.4524" clip-path="url(#clipPath2)" font-family="sans-serif" stroke="none" xml:space="preserve">матрицы</text>
    </g>
    <g text-rendering="geometricPrecision" stroke-miterlimit="1.45" shape-rendering="geometricPrecision" transform="matrix(1,0,0,1,-552,-589)" stroke-linecap="butt">
      <rect fill="none" x="567.3795" width="345.645" height="92.48" y="1004.835" clip-path="url(#clipPath2)"/>
      <path fill="none" d="M577.3795 1004.835 L577.3795 1097.3149 M903.0245 1004.835 L903.0245 1097.3149 M577.3795 1004.835 Z" clip-path="url(#clipPath2)"/>
      <text x="618.825" font-size="20px" y="1046.6804" clip-path="url(#clipPath2)" font-family="sans-serif" stroke="none" xml:space="preserve">взять матрицу из очереди</text>
      <text x="645.9051" font-size="20px" y="1071.1824" clip-path="url(#clipPath2)" font-family="sans-serif" stroke="none" xml:space="preserve">q2, используя mutex</text>
    </g>
    <g text-rendering="geometricPrecision" stroke-miterlimit="1.45" shape-rendering="geometricPrecision" transform="matrix(1,0,0,1,-552,-589)" stroke-linecap="butt">
      <rect fill="none" x="567.3795" width="345.645" height="92.48" y="1273.375" clip-path="url(#clipPath2)"/>
      <path fill="none" d="M577.3795 1273.375 L577.3795 1365.855 M903.0245 1273.375 L903.0245 1365.855 M577.3795 1273.375 Z" clip-path="url(#clipPath2)"/>
      <text x="581.0955" font-size="20px" y="1315.2205" clip-path="url(#clipPath2)" font-family="sans-serif" stroke="none" xml:space="preserve">Положить детерминант в очередь</text>
      <text x="576.3934" font-size="20px" y="1339.7224" clip-path="url(#clipPath2)" font-family="sans-serif" stroke="none" xml:space="preserve">q3, q2_handled++, используя mutex</text>
    </g>
    <g text-rendering="geometricPrecision" stroke-miterlimit="1.45" shape-rendering="geometricPrecision" transform="matrix(1,0,0,1,-552,-589)" stroke-linecap="butt">
      <path fill="none" d="M1023.4051 697.2108 L1023.4051 719.1707" clip-path="url(#clipPath2)"/>
    </g>
    <g text-rendering="geometricPrecision" stroke-miterlimit="1.45" shape-rendering="geometricPrecision" transform="matrix(1,0,0,1,-552,-589)" stroke-linecap="butt">
      <path d="M1023.4051 727.1707 L1028.405 715.1707 L1023.4051 718.1707 L1018.4051 715.1707 Z" stroke="none" clip-path="url(#clipPath2)"/>
      <path fill="none" d="M1023.4051 1504.6393 L1023.4051 1526.5991" clip-path="url(#clipPath2)"/>
      <path d="M1023.4051 1534.5991 L1028.405 1522.5991 L1023.4051 1525.5991 L1018.4051 1522.5991 Z" clip-path="url(#clipPath2)" stroke="none"/>
      <path fill="none" d="M1023.4051 819.6389 L1023.4051 841.6514" clip-path="url(#clipPath2)"/>
      <path d="M1023.4051 849.6514 L1028.405 837.6514 L1023.4051 840.6514 L1018.4051 837.6514 Z" clip-path="url(#clipPath2)" stroke="none"/>
      <path fill="none" d="M1232.3245 933.1484 L1313.1406 933.1484 L1313.1406 1380.1254 L1023.4051 1380.1254 L1023.4051 1404.1045" clip-path="url(#clipPath2)"/>
      <path d="M1023.4051 1412.1045 L1028.405 1400.1045 L1023.4051 1403.1045 L1018.4051 1400.1045 Z" clip-path="url(#clipPath2)" stroke="none"/>
      <text x="1255.2306" font-size="20px" y="906.6557" clip-path="url(#clipPath2)" font-family="sans-serif" stroke="none" xml:space="preserve">Да</text>
      <path fill="none" stroke-dasharray="12,4" d="M1268.2231 650.9519 L1196.2301 650.9519" stroke-width="2" clip-path="url(#clipPath2)"/>
      <path fill="none" d="M814.4253 933.1484 L740.202 933.1484 L740.202 996.8084" clip-path="url(#clipPath2)"/>
      <path d="M740.202 1004.8084 L745.202 992.8084 L740.202 995.8084 L735.202 992.8084 Z" clip-path="url(#clipPath2)" stroke="none"/>
      <path fill="none" d="M740.202 1097.3286 L740.202 1131.145" clip-path="url(#clipPath2)"/>
      <path d="M740.202 1139.145 L745.202 1127.145 L740.202 1130.145 L735.202 1127.145 Z" clip-path="url(#clipPath2)" stroke="none"/>
      <path fill="none" d="M740.202 1231.5986 L740.202 1265.415" clip-path="url(#clipPath2)"/>
      <path d="M740.202 1273.415 L745.202 1261.415 L740.202 1264.415 L735.202 1261.415 Z" clip-path="url(#clipPath2)" stroke="none"/>
      <path fill="none" d="M740.202 1365.8546 L740.202 1380.1254 L1023.4051 1380.1254 L1023.4051 1404.1075" clip-path="url(#clipPath2)"/>
      <path d="M1023.4051 1412.1075 L1028.405 1400.1075 L1023.4051 1403.1075 L1018.4051 1400.1075 Z" clip-path="url(#clipPath2)" stroke="none"/>
    </g>
  </g>
</svg>
