<?xml version="1.0" encoding="UTF-8"?><svg xmlns="http://www.w3.org/2000/svg" xmlns:xlink="http://www.w3.org/1999/xlink" fill-opacity="1" color-rendering="auto" color-interpolation="auto" text-rendering="auto" stroke="black" stroke-linecap="square" width="1326" stroke-miterlimit="10" shape-rendering="auto" stroke-opacity="1" fill="black" stroke-dasharray="none" font-weight="normal" stroke-width="1" height="1059" font-family="'Dialog'" font-style="normal" stroke-linejoin="miter" font-size="12px" stroke-dashoffset="0" image-rendering="auto">
  <!--Generated by ySVG 2.6-->
  <defs id="genericDefs"/>
  <g>
    <defs id="defs1">
      <linearGradient x1="875.9621" gradientUnits="userSpaceOnUse" x2="1221.6071" y1="630.4238" y2="722.9037" id="linearGradient1" spreadMethod="reflect">
        <stop stop-opacity="1" stop-color="white" offset="0%"/>
        <stop stop-opacity="1" stop-color="white" offset="100%"/>
      </linearGradient>
      <linearGradient x1="875.9621" gradientUnits="userSpaceOnUse" x2="1221.6071" y1="1566.0822" y2="1658.5621" id="linearGradient2" spreadMethod="reflect">
        <stop stop-opacity="1" stop-color="white" offset="0%"/>
        <stop stop-opacity="1" stop-color="white" offset="100%"/>
      </linearGradient>
      <clipPath clipPathUnits="userSpaceOnUse" id="clipPath1">
        <path d="M0 0 L1326 0 L1326 1059 L0 1059 L0 0 Z"/>
      </clipPath>
      <clipPath clipPathUnits="userSpaceOnUse" id="clipPath2">
        <path d="M577 615 L1903 615 L1903 1674 L577 1674 L577 615 Z"/>
      </clipPath>
    </defs>
    <g fill="white" text-rendering="geometricPrecision" shape-rendering="geometricPrecision" transform="translate(-577,-615)" stroke="white">
      <rect x="577" width="1326" height="1059" y="615" clip-path="url(#clipPath2)" stroke="none"/>
    </g>
    <g fill="url(#linearGradient1)" text-rendering="geometricPrecision" shape-rendering="geometricPrecision" transform="matrix(1,0,0,1,-577,-615)" stroke="url(#linearGradient1)">
      <rect x="875.9621" y="630.4237" clip-path="url(#clipPath2)" width="345.645" rx="46.24" ry="46.24" height="92.48" stroke="none"/>
    </g>
    <g text-rendering="geometricPrecision" stroke-miterlimit="1.45" shape-rendering="geometricPrecision" transform="matrix(1,0,0,1,-577,-615)" stroke-linecap="butt">
      <rect x="875.9621" y="630.4237" clip-path="url(#clipPath2)" fill="none" width="345.645" rx="46.24" ry="46.24" height="92.48"/>
      <text x="1013.8334" font-size="20px" y="684.5202" clip-path="url(#clipPath2)" font-family="sans-serif" stroke="none" xml:space="preserve">Начало</text>
    </g>
    <g text-rendering="geometricPrecision" stroke-miterlimit="1.45" shape-rendering="geometricPrecision" transform="matrix(1,0,0,1,-577,-615)" stroke-linecap="butt">
      <path fill="none" d="M873.2668 752.9037 L1224.3024 752.9037 L1234.3024 762.9037 L1234.3024 845.3837 L863.2668 845.3837 L863.2668 762.9037 Z" clip-path="url(#clipPath2)"/>
      <text x="926.0112" font-size="20px" y="794.7492" clip-path="url(#clipPath2)" font-family="sans-serif" stroke="none" xml:space="preserve">Пока очереди q1 и q2 и q3</text>
      <text x="872.603" font-size="20px" y="819.2512" clip-path="url(#clipPath2)" font-family="sans-serif" stroke="none" xml:space="preserve">не пусты и q3_handled &lt;= q3_received</text>
    </g>
    <g fill="url(#linearGradient2)" text-rendering="geometricPrecision" shape-rendering="geometricPrecision" transform="matrix(1,0,0,1,-577,-615)" stroke="url(#linearGradient2)">
      <rect x="875.9621" y="1566.0822" clip-path="url(#clipPath2)" width="345.645" rx="46.24" ry="46.24" height="92.48" stroke="none"/>
    </g>
    <g text-rendering="geometricPrecision" stroke-miterlimit="1.45" shape-rendering="geometricPrecision" transform="matrix(1,0,0,1,-577,-615)" stroke-linecap="butt">
      <rect x="875.9621" y="1566.0822" clip-path="url(#clipPath2)" fill="none" width="345.645" rx="46.24" ry="46.24" height="92.48"/>
      <text x="1020.5864" font-size="20px" y="1620.1786" clip-path="url(#clipPath2)" font-family="sans-serif" stroke="none" xml:space="preserve">Конец</text>
    </g>
    <g text-rendering="geometricPrecision" stroke-miterlimit="1.45" shape-rendering="geometricPrecision" transform="matrix(1,0,0,1,-577,-615)" stroke-linecap="butt">
      <path fill="none" d="M869.6144 1443.6022 L1227.9547 1443.6022 L1227.9547 1526.0822 L1217.9547 1536.0822 L879.6144 1536.0822 L869.6144 1526.0822 Z" clip-path="url(#clipPath2)"/>
      <text x="926.0112" font-size="20px" y="1485.4476" clip-path="url(#clipPath2)" font-family="sans-serif" stroke="none" xml:space="preserve">Пока очереди q1 и q2 и q3</text>
      <text x="872.603" font-size="20px" y="1509.9496" clip-path="url(#clipPath2)" font-family="sans-serif" stroke="none" xml:space="preserve">не пусты и q3_handled &lt;= q3_received</text>
    </g>
    <g text-rendering="geometricPrecision" stroke-miterlimit="1.45" shape-rendering="geometricPrecision" transform="matrix(1,0,0,1,-577,-615)" stroke-linecap="butt">
      <path fill="none" d="M1048.7845 875.3837 L1257.7299 958.8603 L1048.7845 1042.3369 L839.8393 958.8603 Z" clip-path="url(#clipPath2)"/>
      <text x="968.0473" font-size="20px" y="966.7167" clip-path="url(#clipPath2)" font-family="sans-serif" stroke="none" xml:space="preserve">очередь q3 пуста</text>
    </g>
    <g text-rendering="geometricPrecision" stroke-miterlimit="1.45" shape-rendering="geometricPrecision" transform="matrix(1,0,0,1,-577,-615)" stroke-linecap="butt">
      <path fill="none" d="M1317.1487 635.7162 L1293.4768 635.7162 L1293.4768 717.9037 L1317.1487 717.9037" clip-path="url(#clipPath2)"/>
      <text x="1309.1067" font-size="20px" y="660.1645" clip-path="url(#clipPath2)" font-family="sans-serif" stroke="none" xml:space="preserve">ссылки на очереди q1, q2, q3</text>
      <text x="1309.1067" font-size="20px" y="684.6664" clip-path="url(#clipPath2)" font-family="sans-serif" stroke="none" xml:space="preserve">q3_received — определяется ранее</text>
      <text x="1309.1067" font-size="20px" y="709.1684" clip-path="url(#clipPath2)" font-family="sans-serif" stroke="none" xml:space="preserve">и равно количеству матриц, которое необходимо обработать </text>
    </g>
    <g text-rendering="geometricPrecision" stroke-miterlimit="1.45" shape-rendering="geometricPrecision" transform="matrix(1,0,0,1,-577,-615)" stroke-linecap="butt">
      <rect fill="none" x="592.759" width="345.645" height="92.48" y="1164.8169" clip-path="url(#clipPath2)"/>
      <path fill="none" d="M602.759 1164.8169 L602.759 1257.2969 M928.404 1164.8169 L928.404 1257.2969 M602.759 1164.8169 Z" clip-path="url(#clipPath2)"/>
      <text x="609.0678" font-size="20px" y="1206.6624" clip-path="url(#clipPath2)" font-family="sans-serif" stroke="none" xml:space="preserve">Записать детерминант и матрицу</text>
      <text x="732.2807" font-size="20px" y="1231.1643" clip-path="url(#clipPath2)" font-family="sans-serif" stroke="none" xml:space="preserve">в файл</text>
    </g>
    <g text-rendering="geometricPrecision" stroke-miterlimit="1.45" shape-rendering="geometricPrecision" transform="matrix(1,0,0,1,-577,-615)" stroke-linecap="butt">
      <rect fill="none" x="592.759" width="345.645" height="92.48" y="1042.3369" clip-path="url(#clipPath2)"/>
      <path fill="none" d="M602.759 1042.3369 L602.759 1134.8169 M928.404 1042.3369 L928.404 1134.8169 M602.759 1042.3369 Z" clip-path="url(#clipPath2)"/>
      <text x="624.1411" font-size="20px" y="1084.1824" clip-path="url(#clipPath2)" font-family="sans-serif" stroke="none" xml:space="preserve">взять матрицу и детерминант </text>
      <text x="616.6801" font-size="20px" y="1108.6843" clip-path="url(#clipPath2)" font-family="sans-serif" stroke="none" xml:space="preserve">из очереди q3, используя mutex</text>
    </g>
    <g text-rendering="geometricPrecision" stroke-miterlimit="1.45" shape-rendering="geometricPrecision" transform="matrix(1,0,0,1,-577,-615)" stroke-linecap="butt">
      <rect fill="none" x="592.759" width="345.645" height="92.48" y="1278.5669" clip-path="url(#clipPath2)"/>
      <path fill="none" d="M602.759 1278.5669 L602.759 1371.0469 M928.404 1278.5669 L928.404 1371.0469 M602.759 1278.5669 Z" clip-path="url(#clipPath2)"/>
      <text x="618.4526" font-size="20px" y="1332.6633" clip-path="url(#clipPath2)" font-family="sans-serif" stroke="none" xml:space="preserve">q3_handled++, используя mutex</text>
    </g>
    <g text-rendering="geometricPrecision" stroke-miterlimit="1.45" shape-rendering="geometricPrecision" transform="matrix(1,0,0,1,-577,-615)" stroke-linecap="butt">
      <path fill="none" d="M1048.7845 722.9227 L1048.7845 744.8826" clip-path="url(#clipPath2)"/>
    </g>
    <g text-rendering="geometricPrecision" stroke-miterlimit="1.45" shape-rendering="geometricPrecision" transform="matrix(1,0,0,1,-577,-615)" stroke-linecap="butt">
      <path d="M1048.7845 752.8826 L1053.7845 740.8826 L1048.7845 743.8826 L1043.7845 740.8826 Z" stroke="none" clip-path="url(#clipPath2)"/>
      <path fill="none" d="M1048.7845 1536.1011 L1048.7845 1558.061" clip-path="url(#clipPath2)"/>
      <path d="M1048.7845 1566.061 L1053.7845 1554.061 L1048.7845 1557.061 L1043.7845 1554.061 Z" clip-path="url(#clipPath2)" stroke="none"/>
      <path fill="none" d="M1048.7845 845.3508 L1048.7845 867.3632" clip-path="url(#clipPath2)"/>
      <path d="M1048.7845 875.3632 L1053.7845 863.3632 L1048.7845 866.3632 L1043.7845 863.3632 Z" clip-path="url(#clipPath2)" stroke="none"/>
      <path fill="none" d="M1257.7535 958.8603 L1343.8844 958.8603 L1343.8844 1404.7656 L1048.7845 1404.7656 L1048.7845 1435.5703" clip-path="url(#clipPath2)"/>
      <path d="M1048.7845 1443.5703 L1053.7845 1431.5703 L1048.7845 1434.5703 L1043.7845 1431.5703 Z" clip-path="url(#clipPath2)" stroke="none"/>
      <text x="1292.5074" font-size="20px" y="936.7726" clip-path="url(#clipPath2)" font-family="sans-serif" stroke="none" xml:space="preserve">Да</text>
      <path fill="none" stroke-dasharray="12,4" d="M1293.5009 676.7692 L1221.5975 676.7382" stroke-width="2" clip-path="url(#clipPath2)"/>
      <path fill="none" d="M839.8739 958.8603 L765.5815 958.8603 L765.5815 1034.3083" clip-path="url(#clipPath2)"/>
      <path d="M765.5815 1042.3083 L770.5815 1030.3083 L765.5815 1033.3083 L760.5815 1030.3083 Z" clip-path="url(#clipPath2)" stroke="none"/>
      <path fill="none" d="M765.5815 1134.8358 L765.5815 1156.7958" clip-path="url(#clipPath2)"/>
      <path d="M765.5815 1164.7958 L770.5815 1152.7958 L765.5815 1155.7958 L760.5815 1152.7958 Z" clip-path="url(#clipPath2)" stroke="none"/>
      <path fill="none" d="M765.5815 1257.2955 L765.5815 1270.5577" clip-path="url(#clipPath2)"/>
      <path d="M765.5815 1278.5577 L770.5815 1266.5577 L765.5815 1269.5577 L760.5815 1266.5577 Z" clip-path="url(#clipPath2)" stroke="none"/>
      <path fill="none" d="M765.5815 1371.072 L765.5815 1404.7656 L1048.7845 1404.7656 L1048.7845 1435.6067" clip-path="url(#clipPath2)"/>
      <path d="M1048.7845 1443.6067 L1053.7845 1431.6067 L1048.7845 1434.6067 L1043.7845 1431.6067 Z" clip-path="url(#clipPath2)" stroke="none"/>
    </g>
  </g>
</svg>
