<?xml version="1.0" encoding="UTF-8"?><svg xmlns="http://www.w3.org/2000/svg" xmlns:xlink="http://www.w3.org/1999/xlink" fill-opacity="1" color-rendering="auto" color-interpolation="auto" text-rendering="auto" stroke="black" stroke-linecap="square" width="262" stroke-miterlimit="10" shape-rendering="auto" stroke-opacity="1" fill="black" stroke-dasharray="none" font-weight="normal" stroke-width="1" height="1209" font-family="'Dialog'" font-style="normal" stroke-linejoin="miter" font-size="12px" stroke-dashoffset="0" image-rendering="auto">
  <!--Generated by ySVG 2.6-->
  <defs id="genericDefs"/>
  <g>
    <defs id="defs1">
      <linearGradient x1="697" gradientUnits="userSpaceOnUse" x2="901" y1="230" y2="306" id="linearGradient1" spreadMethod="reflect">
        <stop stop-opacity="1" stop-color="white" offset="0%"/>
        <stop stop-opacity="1" stop-color="white" offset="100%"/>
      </linearGradient>
      <linearGradient x1="697" gradientUnits="userSpaceOnUse" x2="901" y1="441" y2="517" id="linearGradient2" spreadMethod="reflect">
        <stop stop-opacity="1" stop-color="white" offset="0%"/>
        <stop stop-opacity="1" stop-color="white" offset="100%"/>
      </linearGradient>
      <linearGradient x1="697" gradientUnits="userSpaceOnUse" x2="901" y1="346" y2="401" id="linearGradient3" spreadMethod="reflect">
        <stop stop-opacity="1" stop-color="white" offset="0%"/>
        <stop stop-opacity="1" stop-color="white" offset="100%"/>
      </linearGradient>
      <linearGradient x1="684" gradientUnits="userSpaceOnUse" x2="916" y1="557" y2="624" id="linearGradient4" spreadMethod="reflect">
        <stop stop-opacity="1" stop-color="white" offset="0%"/>
        <stop stop-opacity="1" stop-color="white" offset="100%"/>
      </linearGradient>
      <linearGradient x1="684" gradientUnits="userSpaceOnUse" x2="916" y1="664" y2="731" id="linearGradient5" spreadMethod="reflect">
        <stop stop-opacity="1" stop-color="white" offset="0%"/>
        <stop stop-opacity="1" stop-color="white" offset="100%"/>
      </linearGradient>
      <linearGradient x1="697" gradientUnits="userSpaceOnUse" x2="901" y1="783.5625" y2="838.5625" id="linearGradient6" spreadMethod="reflect">
        <stop stop-opacity="1" stop-color="white" offset="0%"/>
        <stop stop-opacity="1" stop-color="white" offset="100%"/>
      </linearGradient>
      <linearGradient x1="697" gradientUnits="userSpaceOnUse" x2="901" y1="891.125" y2="967.125" id="linearGradient7" spreadMethod="reflect">
        <stop stop-opacity="1" stop-color="white" offset="0%"/>
        <stop stop-opacity="1" stop-color="white" offset="100%"/>
      </linearGradient>
      <linearGradient x1="684" gradientUnits="userSpaceOnUse" x2="916" y1="1007.125" y2="1074.125" id="linearGradient8" spreadMethod="reflect">
        <stop stop-opacity="1" stop-color="white" offset="0%"/>
        <stop stop-opacity="1" stop-color="white" offset="100%"/>
      </linearGradient>
      <linearGradient x1="684" gradientUnits="userSpaceOnUse" x2="916" y1="1114.125" y2="1181.125" id="linearGradient9" spreadMethod="reflect">
        <stop stop-opacity="1" stop-color="white" offset="0%"/>
        <stop stop-opacity="1" stop-color="white" offset="100%"/>
      </linearGradient>
      <linearGradient x1="697" gradientUnits="userSpaceOnUse" x2="901" y1="1233.6875" y2="1288.6875" id="linearGradient10" spreadMethod="reflect">
        <stop stop-opacity="1" stop-color="white" offset="0%"/>
        <stop stop-opacity="1" stop-color="white" offset="100%"/>
      </linearGradient>
      <linearGradient x1="697" gradientUnits="userSpaceOnUse" x2="901" y1="1332.5" y2="1408.5" id="linearGradient11" spreadMethod="reflect">
        <stop stop-opacity="1" stop-color="white" offset="0%"/>
        <stop stop-opacity="1" stop-color="white" offset="100%"/>
      </linearGradient>
      <clipPath clipPathUnits="userSpaceOnUse" id="clipPath1">
        <path d="M0 0 L262 0 L262 1209 L0 1209 L0 0 Z"/>
      </clipPath>
      <clipPath clipPathUnits="userSpaceOnUse" id="clipPath2">
        <path d="M669 215 L931 215 L931 1424 L669 1424 L669 215 Z"/>
      </clipPath>
    </defs>
    <g fill="white" text-rendering="geometricPrecision" shape-rendering="geometricPrecision" transform="translate(-669,-215)" stroke="white">
      <rect x="669" width="262" height="1209" y="215" clip-path="url(#clipPath2)" stroke="none"/>
    </g>
    <g fill="url(#linearGradient1)" text-rendering="geometricPrecision" shape-rendering="geometricPrecision" transform="matrix(1,0,0,1,-669,-215)" stroke="url(#linearGradient1)">
      <rect x="697" y="230" clip-path="url(#clipPath2)" width="204" rx="38" ry="38" height="76" stroke="none"/>
    </g>
    <g text-rendering="geometricPrecision" stroke-miterlimit="1.45" shape-rendering="geometricPrecision" transform="matrix(1,0,0,1,-669,-215)" stroke-linecap="butt">
      <rect x="697" y="230" clip-path="url(#clipPath2)" fill="none" width="204" rx="38" ry="38" height="76"/>
      <text x="778.0293" xml:space="preserve" y="272.7139" clip-path="url(#clipPath2)" font-family="sans-serif" stroke="none">Начало</text>
    </g>
    <g fill="url(#linearGradient2)" text-rendering="geometricPrecision" shape-rendering="geometricPrecision" transform="matrix(1,0,0,1,-669,-215)" stroke="url(#linearGradient2)">
      <path d="M707 441 L891 441 L901 451 L901 517 L697 517 L697 451 Z" stroke="none" clip-path="url(#clipPath2)"/>
    </g>
    <g text-rendering="geometricPrecision" stroke-miterlimit="1.45" shape-rendering="geometricPrecision" transform="matrix(1,0,0,1,-669,-215)" stroke-linecap="butt">
      <path fill="none" d="M707 441 L891 441 L901 451 L901 517 L697 517 L697 451 Z" clip-path="url(#clipPath2)"/>
      <text x="727.6064" xml:space="preserve" y="476.3633" clip-path="url(#clipPath2)" font-family="sans-serif" stroke="none">Цикл i от 0 до количества</text>
      <text x="728.2744" xml:space="preserve" y="491.0645" clip-path="url(#clipPath2)" font-family="sans-serif" stroke="none"> до количества матриц -1</text>
    </g>
    <g fill="url(#linearGradient3)" text-rendering="geometricPrecision" shape-rendering="geometricPrecision" transform="matrix(1,0,0,1,-669,-215)" stroke="url(#linearGradient3)">
      <path d="M697 346 L901 346 L901 401 L697 401 Z" stroke="none" clip-path="url(#clipPath2)"/>
    </g>
    <g text-rendering="geometricPrecision" stroke-miterlimit="1.45" shape-rendering="geometricPrecision" transform="matrix(1,0,0,1,-669,-215)" stroke-linecap="butt">
      <path fill="none" d="M697 346 L901 346 L901 401 L697 401 Z" clip-path="url(#clipPath2)"/>
      <text x="708.5137" xml:space="preserve" y="370.8633" clip-path="url(#clipPath2)" font-family="sans-serif" stroke="none">Создание потоков в количестве </text>
      <text x="723.4814" xml:space="preserve" y="385.5645" clip-path="url(#clipPath2)" font-family="sans-serif" stroke="none">равном количеству матриц</text>
    </g>
    <g fill="url(#linearGradient4)" text-rendering="geometricPrecision" shape-rendering="geometricPrecision" transform="matrix(1,0,0,1,-669,-215)" stroke="url(#linearGradient4)">
      <rect x="684" width="232" height="67" y="557" clip-path="url(#clipPath2)" stroke="none"/>
    </g>
    <g text-rendering="geometricPrecision" stroke-miterlimit="1.45" shape-rendering="geometricPrecision" transform="matrix(1,0,0,1,-669,-215)" stroke-linecap="butt">
      <rect fill="none" x="684" width="232" height="67" y="557" clip-path="url(#clipPath2)"/>
      <path fill="none" d="M694 557 L694 624 M906 557 L906 624 M694 557 Z" clip-path="url(#clipPath2)"/>
      <text x="705.7842" xml:space="preserve" y="587.8633" clip-path="url(#clipPath2)" font-family="sans-serif" stroke="none">my_threads[i] = std_thread(parallel,</text>
      <text x="743.9785" xml:space="preserve" y="602.5645" clip-path="url(#clipPath2)" font-family="sans-serif" stroke="none"> size_matrix, degree)</text>
    </g>
    <g fill="url(#linearGradient5)" text-rendering="geometricPrecision" shape-rendering="geometricPrecision" transform="matrix(1,0,0,1,-669,-215)" stroke="url(#linearGradient5)">
      <rect x="684" width="232" height="67" y="664" clip-path="url(#clipPath2)" stroke="none"/>
    </g>
    <g text-rendering="geometricPrecision" stroke-miterlimit="1.45" shape-rendering="geometricPrecision" transform="matrix(1,0,0,1,-669,-215)" stroke-linecap="butt">
      <rect fill="none" x="684" width="232" height="67" y="664" clip-path="url(#clipPath2)"/>
      <path fill="none" d="M694 664 L694 731 M906 664 L906 731 M694 664 Z" clip-path="url(#clipPath2)"/>
      <text x="752.1318" xml:space="preserve" y="702.2139" clip-path="url(#clipPath2)" font-family="sans-serif" stroke="none">degree = - degree</text>
    </g>
    <g fill="url(#linearGradient6)" text-rendering="geometricPrecision" shape-rendering="geometricPrecision" transform="matrix(1,0,0,1,-669,-215)" stroke="url(#linearGradient6)">
      <path d="M697 783.5625 L901 783.5625 L901 828.5625 L891 838.5625 L707 838.5625 L697 828.5625 Z" stroke="none" clip-path="url(#clipPath2)"/>
    </g>
    <g text-rendering="geometricPrecision" stroke-miterlimit="1.45" shape-rendering="geometricPrecision" transform="matrix(1,0,0,1,-669,-215)" stroke-linecap="butt">
      <path fill="none" d="M697 783.5625 L901 783.5625 L901 828.5625 L891 838.5625 L707 838.5625 L697 828.5625 Z" clip-path="url(#clipPath2)"/>
      <text x="752.9102" xml:space="preserve" y="815.7764" clip-path="url(#clipPath2)" font-family="sans-serif" stroke="none">Конец цикла по i</text>
    </g>
    <g fill="url(#linearGradient7)" text-rendering="geometricPrecision" shape-rendering="geometricPrecision" transform="matrix(1,0,0,1,-669,-215)" stroke="url(#linearGradient7)">
      <path d="M707 891.125 L891 891.125 L901 901.125 L901 967.125 L697 967.125 L697 901.125 Z" stroke="none" clip-path="url(#clipPath2)"/>
    </g>
    <g text-rendering="geometricPrecision" stroke-miterlimit="1.45" shape-rendering="geometricPrecision" transform="matrix(1,0,0,1,-669,-215)" stroke-linecap="butt">
      <path fill="none" d="M707 891.125 L891 891.125 L901 901.125 L901 967.125 L697 967.125 L697 901.125 Z" clip-path="url(#clipPath2)"/>
      <text x="741.4844" xml:space="preserve" y="933.8389" clip-path="url(#clipPath2)" font-family="sans-serif" stroke="none">Цикл k от 0 до size-1</text>
    </g>
    <g fill="url(#linearGradient8)" text-rendering="geometricPrecision" shape-rendering="geometricPrecision" transform="matrix(1,0,0,1,-669,-215)" stroke="url(#linearGradient8)">
      <rect x="684" width="232" height="67" y="1007.125" clip-path="url(#clipPath2)" stroke="none"/>
    </g>
    <g text-rendering="geometricPrecision" stroke-miterlimit="1.45" shape-rendering="geometricPrecision" transform="matrix(1,0,0,1,-669,-215)" stroke-linecap="butt">
      <rect fill="none" x="684" width="232" height="67" y="1007.125" clip-path="url(#clipPath2)"/>
      <path fill="none" d="M694 1007.125 L694 1074.125 M906 1007.125 L906 1074.125 M694 1007.125 Z" clip-path="url(#clipPath2)"/>
      <text x="751.3115" xml:space="preserve" y="1045.3389" clip-path="url(#clipPath2)" font-family="sans-serif" stroke="none">my_threads[k].join</text>
    </g>
    <g fill="url(#linearGradient9)" text-rendering="geometricPrecision" shape-rendering="geometricPrecision" transform="matrix(1,0,0,1,-669,-215)" stroke="url(#linearGradient9)">
      <rect x="684" width="232" height="67" y="1114.125" clip-path="url(#clipPath2)" stroke="none"/>
    </g>
    <g text-rendering="geometricPrecision" stroke-miterlimit="1.45" shape-rendering="geometricPrecision" transform="matrix(1,0,0,1,-669,-215)" stroke-linecap="butt">
      <rect fill="none" x="684" width="232" height="67" y="1114.125" clip-path="url(#clipPath2)"/>
      <path fill="none" d="M694 1114.125 L694 1181.125 M906 1114.125 L906 1181.125 M694 1114.125 Z" clip-path="url(#clipPath2)"/>
      <text x="749.2256" xml:space="preserve" y="1144.9883" clip-path="url(#clipPath2)" font-family="sans-serif" stroke="none">Записать матрицу</text>
      <text x="746.9785" xml:space="preserve" y="1159.6895" clip-path="url(#clipPath2)" font-family="sans-serif" stroke="none">и её определитель</text>
    </g>
    <g fill="url(#linearGradient10)" text-rendering="geometricPrecision" shape-rendering="geometricPrecision" transform="matrix(1,0,0,1,-669,-215)" stroke="url(#linearGradient10)">
      <path d="M697 1233.6875 L901 1233.6875 L901 1278.6875 L891 1288.6875 L707 1288.6875 L697 1278.6875 Z" stroke="none" clip-path="url(#clipPath2)"/>
    </g>
    <g text-rendering="geometricPrecision" stroke-miterlimit="1.45" shape-rendering="geometricPrecision" transform="matrix(1,0,0,1,-669,-215)" stroke-linecap="butt">
      <path fill="none" d="M697 1233.6875 L901 1233.6875 L901 1278.6875 L891 1288.6875 L707 1288.6875 L697 1278.6875 Z" clip-path="url(#clipPath2)"/>
      <text x="751.2432" xml:space="preserve" y="1265.9014" clip-path="url(#clipPath2)" font-family="sans-serif" stroke="none">Конец цикла по k</text>
    </g>
    <g fill="url(#linearGradient11)" text-rendering="geometricPrecision" shape-rendering="geometricPrecision" transform="matrix(1,0,0,1,-669,-215)" stroke="url(#linearGradient11)">
      <rect x="697" y="1332.5" clip-path="url(#clipPath2)" width="204" rx="38" ry="38" height="76" stroke="none"/>
    </g>
    <g text-rendering="geometricPrecision" stroke-miterlimit="1.45" shape-rendering="geometricPrecision" transform="matrix(1,0,0,1,-669,-215)" stroke-linecap="butt">
      <rect x="697" y="1332.5" clip-path="url(#clipPath2)" fill="none" width="204" rx="38" ry="38" height="76"/>
      <text x="782.0811" xml:space="preserve" y="1375.2139" clip-path="url(#clipPath2)" font-family="sans-serif" stroke="none">Конец</text>
    </g>
    <g text-rendering="geometricPrecision" stroke-miterlimit="1.45" shape-rendering="geometricPrecision" transform="matrix(1,0,0,1,-669,-215)" stroke-linecap="butt">
      <path fill="none" d="M799 305.9913 L799 337.9757" clip-path="url(#clipPath2)"/>
    </g>
    <g text-rendering="geometricPrecision" stroke-miterlimit="1.45" shape-rendering="geometricPrecision" transform="matrix(1,0,0,1,-669,-215)" stroke-linecap="butt">
      <path d="M799 345.9757 L804 333.9757 L799 336.9757 L794 333.9757 Z" stroke="none" clip-path="url(#clipPath2)"/>
      <path fill="none" d="M799 400.9825 L799 433.0198" clip-path="url(#clipPath2)"/>
      <path d="M799 441.0198 L804 429.0198 L799 432.0198 L794 429.0198 Z" clip-path="url(#clipPath2)" stroke="none"/>
      <path fill="none" d="M799.3406 516.9742 L799.6279 549.0045" clip-path="url(#clipPath2)"/>
      <path d="M799.6996 557.0042 L804.5918 544.9598 L799.6189 548.0045 L794.5922 545.0494 Z" clip-path="url(#clipPath2)" stroke="none"/>
      <path fill="none" d="M800 624.0159 L800 656.0231" clip-path="url(#clipPath2)"/>
      <path d="M800 664.0231 L805 652.0231 L800 655.0231 L795 652.0231 Z" clip-path="url(#clipPath2)" stroke="none"/>
      <path fill="none" d="M799.7048 731.0198 L799.3124 775.5872" clip-path="url(#clipPath2)"/>
      <path d="M799.2419 783.5869 L804.3474 771.6314 L799.3212 774.5873 L794.3478 771.5433 Z" clip-path="url(#clipPath2)" stroke="none"/>
      <path fill="none" d="M799 838.5893 L799 883.1513" clip-path="url(#clipPath2)"/>
      <path d="M799 891.1513 L804 879.1513 L799 882.1513 L794 879.1513 Z" clip-path="url(#clipPath2)" stroke="none"/>
      <path fill="none" d="M799.3406 967.0992 L799.6279 999.1295" clip-path="url(#clipPath2)"/>
      <path d="M799.6996 1007.1292 L804.5918 995.0848 L799.6189 998.1295 L794.5922 995.1744 Z" clip-path="url(#clipPath2)" stroke="none"/>
      <path fill="none" d="M800 1074.1409 L800 1106.1481" clip-path="url(#clipPath2)"/>
      <path d="M800 1114.1481 L805 1102.1481 L800 1105.1481 L795 1102.1481 Z" clip-path="url(#clipPath2)" stroke="none"/>
      <path fill="none" d="M799.7048 1181.1448 L799.3124 1225.7122" clip-path="url(#clipPath2)"/>
      <path d="M799.2419 1233.7118 L804.3474 1221.7562 L799.3212 1224.7122 L794.3478 1221.6682 Z" clip-path="url(#clipPath2)" stroke="none"/>
      <path fill="none" d="M799 1288.7024 L799 1324.5168" clip-path="url(#clipPath2)"/>
      <path d="M799 1332.5168 L804 1320.5168 L799 1323.5168 L794 1320.5168 Z" clip-path="url(#clipPath2)" stroke="none"/>
    </g>
  </g>
</svg>
